<svg id="Layer_1" data-name="Layer 1" xmlns="http://www.w3.org/2000/svg" viewBox="0 0 1366 768"><defs><style>.cls-1{fill:#e7ffe4;}.cls-2{fill:#faf4c4;opacity:0.5;}</style></defs><path class="cls-1" d="M1249.69,0s-43.28,285.53-223.12,277C541.78,254,531.16,493.53,555.23,536,670.82,740,218.3,574,358.09,860c44.65,91.36,168.46-30,168.46-30H956.67S826.74,615,980,534s395.17-63,395.17-63L1454-36H1256Z"/><path class="cls-2" d="M191.71-.5S437.16,72,464.24,140c37.14,93.23-99.87,213.5,19.75,216.5S697,457.32,676.4,549c-35,156,121.88,204,83.51,249s-181.12,4.5-181.12,4.5h-597l-7.9-282s256.17-132,124.14-241S-38.5,52.5-38.5,52.5l20.31-83Z"/></svg>