<svg id="Layer_1" data-name="Layer 1" xmlns="http://www.w3.org/2000/svg" viewBox="0 0 534.45 534.43"><defs><style>.cls-1{fill:#d8d8d8;}.cls-2{fill:#3371aa;}.cls-3{fill:#4db5ec;}.cls-4{fill:#e6e9ef;}.cls-5{fill:#f4f6f9;}.cls-6{fill:#e8a30a;}.cls-7{fill:#f9cb07;}.cls-8{fill:#ab210d;}.cls-9{fill:#ff582b;}.cls-10{fill:#a5ad00;}.cls-11{fill:#b9cc00;}.cls-12{opacity:0.1;isolation:isolate;}</style></defs><g id="Слой_2" data-name="Слой 2"><g id="Слой_1-2" data-name="Слой 1-2"><polyline class="cls-1" points="490.95 336.4 534.45 361.12 237.35 534.43 0 393.92 36.65 373.6"/><polygon class="cls-2" points="496.85 339.5 296.25 223.7 36.65 373.6 31.55 370.6 31.55 376.5 237.25 495.3 501.95 342.4 501.95 336.5 496.85 339.5"/><polygon class="cls-3" points="237.25 489.4 31.55 370.6 296.25 217.8 501.95 336.5 237.25 489.4"/><path class="cls-3" d="M36.65,373.6c.6-.1,6.1-3.5,6.1-3.5V331.2l-6.1-3.5Z"/><polygon class="cls-4" points="237.35 482.9 42.15 370.5 42.15 315.7 45.25 313.1 237.35 423 237.35 482.9"/><polygon class="cls-5" points="490.95 336.4 237.35 482.9 237.35 423 485.45 279.6 490.95 283.1 490.95 336.4"/><polygon class="cls-2" points="496.85 287.8 296.25 172 36.65 321.8 31.55 318.9 31.55 324.8 237.25 443.5 501.95 290.7 501.95 284.8 496.85 287.8"/><polygon class="cls-3" points="237.25 437.6 31.55 318.9 296.25 166.1 501.95 284.8 237.25 437.6"/><polygon class="cls-2" points="31.55 370.6 31.55 318.9 36.65 321.8 36.65 379.2 31.55 370.6"/><polygon class="cls-6" points="480.65 278.1 290.55 168.4 44.45 310.4 39.65 307.6 39.65 313.2 234.55 425.7 485.45 280.9 485.45 275.3 480.65 278.1"/><polygon class="cls-7" points="234.55 420.1 39.65 307.6 290.55 162.8 485.45 275.3 234.55 420.1"/><path class="cls-7" d="M44.45,310.4c.6-.1,5.7-3.3,5.7-3.3V270.3l-5.7-3.3Z"/><polygon class="cls-4" points="234.65 414 49.75 307.5 49.75 255.5 52.65 253.1 234.65 357.2 234.65 414"/><polygon class="cls-5" points="475.05 275.2 234.65 414 234.65 357.2 469.85 221.4 475.05 224.6 475.05 275.2"/><polygon class="cls-6" points="480.65 229.1 290.55 119.3 44.45 261.4 39.65 258.6 39.65 264.2 234.55 376.7 485.45 231.9 485.45 226.3 480.65 229.1"/><polygon class="cls-7" points="234.55 371.1 39.65 258.6 290.55 113.8 485.45 226.3 234.55 371.1"/><polygon class="cls-6" points="39.65 307.6 39.65 258.6 44.45 261.4 44.45 315.8 39.65 307.6"/><polygon class="cls-8" points="470.85 216.2 289.25 111.3 54.25 247 49.65 244.4 49.65 249.7 235.85 357.2 475.45 218.8 475.45 213.5 470.85 216.2"/><polygon class="cls-9" points="235.85 351.9 49.65 244.4 289.25 106 475.45 213.5 235.85 351.9"/><path class="cls-9" d="M54.25,247a62.45,62.45,0,0,0,5.5-3.2V208.6l-5.5-3.2Z"/><polygon class="cls-4" points="235.95 346 59.25 244.3 59.25 194.6 62.05 192.3 235.95 291.7 235.95 346"/><polygon class="cls-5" points="465.55 213.4 235.95 346 235.95 291.7 460.55 162 465.55 165.1 465.55 213.4"/><polygon class="cls-8" points="470.85 169.3 289.25 64.5 54.25 200.2 49.65 197.5 49.65 202.9 235.85 310.4 475.45 172 475.45 166.7 470.85 169.3"/><polygon class="cls-9" points="235.85 305 49.65 197.5 289.25 59.2 475.45 166.7 235.85 305"/><polygon class="cls-8" points="49.65 244.4 49.65 197.5 54.25 200.2 54.25 252.2 49.65 244.4"/><polygon class="cls-10" points="480.15 165.2 288.95 54.9 41.55 197.7 36.65 194.9 36.65 200.5 232.65 313.7 485.05 168 485.05 162.4 480.15 165.2"/><polygon class="cls-11" points="232.65 308.1 36.65 194.9 288.95 49.3 485.05 162.4 232.65 308.1"/><path class="cls-11" d="M41.55,197.7c.6-.1,5.8-3.3,5.8-3.3v-37l-5.8-3.3Z"/><polygon class="cls-4" points="232.85 302 46.75 194.8 46.75 142.5 49.75 140.1 232.85 244.8 232.85 302"/><polygon class="cls-5" points="474.55 162.3 232.85 302 232.85 244.8 469.35 108.2 474.55 111.5 474.55 162.3"/><polygon class="cls-10" points="480.15 115.9 288.95 5.6 41.55 148.4 36.65 145.6 36.65 151.2 232.65 264.4 485.05 118.7 485.05 113.1 480.15 115.9"/><polygon class="cls-11" points="232.65 258.8 36.65 145.6 288.95 0 485.05 113.1 232.65 258.8"/><polygon class="cls-10" points="36.65 194.9 36.65 145.6 41.55 148.4 41.55 203.1 36.65 194.9"/><polygon class="cls-12" points="377.15 149.6 219.15 58.4 235.45 49 393.45 140.2 377.15 149.6"/><polygon class="cls-12" points="325.65 149.3 219.65 88.1 227.85 83.4 333.75 144.6 325.65 149.3"/><polygon class="cls-12" points="307.85 161 201.85 99.8 210.05 95.1 315.95 156.3 307.85 161"/><polygon class="cls-12" points="271.25 160 200.15 119 208.25 114.3 279.45 155.3 271.25 160"/></g></g></svg>