<?xml version="1.0" standalone="no"?>
<!DOCTYPE svg PUBLIC "-//W3C//DTD SVG 20010904//EN"
 "http://www.w3.org/TR/2001/REC-SVG-20010904/DTD/svg10.dtd">
<svg version="1.0" xmlns="http://www.w3.org/2000/svg"
 width="240.000000pt" height="240.000000pt" viewBox="0 0 240.000000 240.000000"
 preserveAspectRatio="xMidYMid meet">
<metadata>
Created by potrace 1.11, written by Peter Selinger 2001-2013
</metadata>
<g transform="translate(0.000000,240.000000) scale(0.100000,-0.100000)"
fill="#000000" stroke="none">
<path d="M609 2199 c-164 -11 -262 -83 -299 -218 -16 -60 -16 -1483 0 -1555
20 -92 72 -156 160 -199 l45 -22 793 -2 792 -3 0 100 0 100 -771 0 -771 0 -27
28 c-24 24 -28 35 -26 77 1 40 7 52 30 71 l29 23 696 0 c382 1 728 1 768 1
l73 0 -3 728 -3 727 -27 47 c-21 35 -41 53 -81 73 l-54 26 -619 2 c-340 1
-657 -1 -705 -4z m361 -403 c8 1 20 3 25 4 6 1 26 1 45 0 126 -5 317 -4 313 3
-2 4 6 5 19 2 46 -10 99 -12 104 -3 3 4 10 6 15 2 5 -3 54 -5 109 -5 l100 1 1
-53 c2 -100 1 -139 -4 -143 -7 -8 -874 -7 -886 0 -6 4 -9 44 -8 99 l2 92 38 0
c20 0 37 3 37 6 0 4 17 4 38 0 20 -3 44 -5 52 -5z"/>
</g>
</svg>
